HIERARCHY
ROOT Hips
{
    OFFSET 0.000 93.594 0.000
    CHANNELS 6 Xposition Yposition Zposition Yrotation Xrotation Zrotation
    JOINT RightHip
    {
        OFFSET -9.500 -1.594 0.000
        CHANNELS 3 Yrotation Xrotation Zrotation
        JOINT RightKnee
        {
            OFFSET 0.000 -42.000 0.000
            CHANNELS 3 Yrotation Xrotation Zrotation
            JOINT RightAnkle
            {
                OFFSET 0.000 -42.000 0.000
                CHANNELS 3 Yrotation Xrotation Zrotation
                End Site
                {
                    OFFSET 0.000 -8.000 17.500
                }
            }
        }
    }
    JOINT LeftHip
    {
        OFFSET 9.500 -1.594 0.000
        CHANNELS 3 Yrotation Xrotation Zrotation
        JOINT LeftKnee
        {
            OFFSET 0.000 -42.000 0.000
            CHANNELS 3 Yrotation Xrotation Zrotation
            JOINT LeftAnkle
            {
                OFFSET 0.000 -42.000 0.000
                CHANNELS 3 Yrotation Xrotation Zrotation
                End Site
                {
                    OFFSET 0.000 -8.000 17.500
                }
            }
        }
    }
    JOINT Chest
    {
        OFFSET 0.000 14.348 0.000
        CHANNELS 3 Yrotation Xrotation Zrotation
        JOINT Chest2
        {
            OFFSET 0.000 9.746 0.000
            CHANNELS 3 Yrotation Xrotation Zrotation
            JOINT Chest3
            {
                OFFSET 0.000 10.149 0.000
                CHANNELS 3 Yrotation Xrotation Zrotation
                JOINT Chest4
                {
                    OFFSET 0.000 9.746 0.000
                    CHANNELS 3 Yrotation Xrotation Zrotation
                    JOINT Neck
                    {
                        OFFSET 0.000 10.417 0.000
                        CHANNELS 3 Yrotation Xrotation Zrotation
                        JOINT Head
                        {
                            OFFSET 0.000 9.000 0.000
                            CHANNELS 3 Yrotation Xrotation Zrotation
                            End Site
                            {
                                OFFSET 0.000 16.000 0.000
                            }
                        }
                    }
                    JOINT RightCollar
                    {
                        OFFSET -3.200 6.945 0.000
                        CHANNELS 3 Yrotation Xrotation Zrotation
                        JOINT RightShoulder
                        {
                            OFFSET -12.800 0.000 0.000
                            CHANNELS 3 Yrotation Xrotation Zrotation
                            JOINT RightElbow
                            {
OFFSET -0 -27 0.000
						CHANNELS 3 Xrotation Yrotation Zrotation
                                JOINT RightWrist
                                {
OFFSET -0 -26 0.000
						CHANNELS 3 Xrotation Yrotation Zrotation
                                    JOINT RightFinger0
                                    {
OFFSET -0.196 -2.56 3.210
						CHANNELS 3 Xrotation Yrotation Zrotation
                                        JOINT RightFinger01
                                        {
OFFSET -0 -3.788 0.000
						CHANNELS 3 Xrotation Yrotation Zrotation
                                            JOINT RightFinger0Nub
                                            {
OFFSET -0 -2.631 0.000
						CHANNELS 3 Xrotation Yrotation Zrotation
                                                End Site
                                                {
OFFSET 0 -2.256 0
                                                }
                                            }
                                        }
                                    }
                                    JOINT RightFinger1
                                    {
OFFSET -0.523 -3.316 2.035
						CHANNELS 3 Xrotation Yrotation Zrotation
                                        JOINT RightFinger11
                                        {
OFFSET 0.094 -5.366 1.028
						CHANNELS 3 Xrotation Yrotation Zrotation
                                            JOINT RightFinger12
                                            {
OFFSET -0 -3.723 0.000
						CHANNELS 3 Xrotation Yrotation Zrotation
                                                JOINT RightFinger1Nub
                                                {
OFFSET -0 -2.111 0.000
						CHANNELS 3 Xrotation Yrotation Zrotation
                                                    End Site
                                                    {
OFFSET 0 -1.857 0
                                                    }
                                                }
                                            }
                                        }
                                    }
                                    JOINT RightFinger2
                                    {
OFFSET -0.532 -3.479 0.778
						CHANNELS 3 Xrotation Yrotation Zrotation
                                        JOINT RightFinger21
                                        {
OFFSET 0.086 -5.322 0.323
						CHANNELS 3 Xrotation Yrotation Zrotation
                                            JOINT RightFinger22
                                            {
OFFSET -0 -4.062 0.000
						CHANNELS 3 Xrotation Yrotation Zrotation
                                                JOINT RightFinger2Nub
                                                {
OFFSET -0 -2.547 0.000
						CHANNELS 3 Xrotation Yrotation Zrotation
                                                    End Site
                                                    {
OFFSET 0 -2.031 0
                                                    }
                                                }
                                            }
                                        }
                                    }
                                    JOINT RightFinger3
                                    {
OFFSET -0.553 -3.461 -0.133
						CHANNELS 3 Xrotation Yrotation Zrotation
                                        JOINT RightFinger31
                                        {
OFFSET 0.023 -4.767 -0.493
						CHANNELS 3 Xrotation Yrotation Zrotation
                                            JOINT RightFinger32
                                            {
OFFSET -0 -3.541 0.000
						CHANNELS 3 Xrotation Yrotation Zrotation
                                                JOINT RightFinger3Nub
                                                {
OFFSET -0 -2.456 0.000
						CHANNELS 3 Xrotation Yrotation Zrotation
                                                    End Site
                                                    {
OFFSET 0 -1.91 0
                                                    }
                                                }
                                            }
                                        }
                                    }
                                    JOINT RightFinger4
                                    {
OFFSET -0.483 -3.251 -1.236
						CHANNELS 3 Xrotation Yrotation Zrotation
                                        JOINT RightFinger41
                                        {
OFFSET 0.023 -4.259 -1.122
						CHANNELS 3 Xrotation Yrotation Zrotation
                                            JOINT RightFinger42
                                            {
OFFSET -0 -2.835 0.000
						CHANNELS 3 Xrotation Yrotation Zrotation
                                                JOINT RightFinger4Nub
                                                {
OFFSET -0 -1.792 0.000
						CHANNELS 3 Xrotation Yrotation Zrotation
                                                    End Site
                                                    {
OFFSET 0 -1.692 0
                                                    }
                                                }
                                            }
                                        }
                                    }
                                }
                            }
                        }
                    }
                    JOINT LeftCollar
                    {
                        OFFSET 3.200 6.945 0.000
                        CHANNELS 3 Yrotation Xrotation Zrotation
                        JOINT LeftShoulder
                        {
                            OFFSET 12.800 0.000 0.000
                            CHANNELS 3 Yrotation Xrotation Zrotation
                            JOINT LeftElbow
                            {
OFFSET -0 -27 0.000
						CHANNELS 3 Xrotation Yrotation Zrotation
                                JOINT LeftWrist
                                {
OFFSET -0 -26 0.000
						CHANNELS 3 Xrotation Yrotation Zrotation
                                    JOINT LeftFinger0
                                    {
OFFSET -0.196 -2.56 3.210
						CHANNELS 3 Xrotation Yrotation Zrotation
                                        JOINT LeftFinger01
                                        {
OFFSET -0 -3.788 0.000
						CHANNELS 3 Xrotation Yrotation Zrotation
                                            JOINT LeftFinger0Nub
                                            {
OFFSET -0 -2.631 0.000
						CHANNELS 3 Xrotation Yrotation Zrotation
                                                End Site
                                                {
OFFSET 0 -2.256 0
                                                }
                                            }
                                        }
                                    }
                                    JOINT LeftFinger1
                                    {
OFFSET -0.523 -3.316 2.035
						CHANNELS 3 Xrotation Yrotation Zrotation
                                        JOINT LeftFinger11
                                        {
OFFSET 0.094 -5.366 1.028
						CHANNELS 3 Xrotation Yrotation Zrotation
                                            JOINT LeftFinger12
                                            {
OFFSET -0 -3.723 0.000
						CHANNELS 3 Xrotation Yrotation Zrotation
                                                JOINT LeftFinger1Nub
                                                {
OFFSET -0 -2.111 0.000
						CHANNELS 3 Xrotation Yrotation Zrotation
                                                    End Site
                                                    {
OFFSET 0 -1.857 0
                                                    }
                                                }
                                            }
                                        }
                                    }
                                    JOINT LeftFinger2
                                    {
OFFSET -0.532 -3.479 0.778
						CHANNELS 3 Xrotation Yrotation Zrotation
                                        JOINT LeftFinger21
                                        {
OFFSET 0.086 -5.322 0.323
						CHANNELS 3 Xrotation Yrotation Zrotation
                                            JOINT LeftFinger22
                                            {
OFFSET -0 -4.062 0.000
						CHANNELS 3 Xrotation Yrotation Zrotation
                                                JOINT LeftFinger2Nub
                                                {
OFFSET -0 -2.547 0.000
						CHANNELS 3 Xrotation Yrotation Zrotation
                                                    End Site
                                                    {
OFFSET 0 -2.031 0
                                                    }
                                                }
                                            }
                                        }
                                    }
                                    JOINT LeftFinger3
                                    {
OFFSET -0.553 -3.461 -0.133
						CHANNELS 3 Xrotation Yrotation Zrotation
                                        JOINT LeftFinger31
                                        {
OFFSET 0.023 -4.767 -0.493
						CHANNELS 3 Xrotation Yrotation Zrotation
                                            JOINT LeftFinger32
                                            {
OFFSET -0 -3.541 0.000
						CHANNELS 3 Xrotation Yrotation Zrotation
                                                JOINT LeftFinger3Nub
                                                {
OFFSET -0 -2.456 0.000
						CHANNELS 3 Xrotation Yrotation Zrotation
                                                    End Site
                                                    {
OFFSET 0 -1.91 0
                                                    }
                                                }
                                            }
                                        }
                                    }
                                    JOINT LeftFinger4
                                    {
OFFSET -0.483 -3.251 -1.236
						CHANNELS 3 Xrotation Yrotation Zrotation
                                        JOINT LeftFinger41
                                        {
OFFSET 0.023 -4.259 -1.122
						CHANNELS 3 Xrotation Yrotation Zrotation
                                            JOINT LeftFinger42
                                            {
OFFSET -0 -2.835 0.000
						CHANNELS 3 Xrotation Yrotation Zrotation
                                                JOINT LeftFinger4Nub
                                                {
OFFSET -0 -1.792 0.000
						CHANNELS 3 Xrotation Yrotation Zrotation
                                                    End Site
                                                    {
OFFSET 0 -1.692 0
                                                    }
                                                }
                                            }
                                        }
                                    }
                                }
                            }
                        }
                    }
                }
            }
        }
    }
}
MOTION

Frames: 4
Frame Time: 0.017
-182.41 89.71 101.15 75.78 -10.50 1.88 -14.41 0.98 -16.07 -0.00 33.00 0.00 -40.02 -9.65 23.64 -8.93 -7.15 9.72 0.00 27.03 0.00 8.27 -14.01 -8.31 -5.04 -0.29 8.85 -1.27 -0.02 2.21 -2.09 0.10 3.65 1.00 2.93 -1.02 -7.05 52.28 -14.46 -20.27 36.98 -27.24 17.91 -9.61 -5.90 -7.61 -17.08 -21.23 -43.73 -25.29 58.88 -17.52 8.52 15.45 -45.3 -0 21.43 19.95 -0 -8.39 6.94 -0 0.00 0 -0 0.00 -15 -0 43.66 0 -0 43.95 0 -0 21.98 0 -0 0.00 0 -0 51.10 0 -0 51.10 0 -0 51.10 0 -0 0.00 15 -0 51.65 0 -0 51.65 0 -0 51.65 0 -0 0.00 25 -0 53.42 0 -0 53.42 0 -0 53.42 -27.66 -11.87 9.88 14.01 -21.55 49.86 -34.23 -9.33 1.74 -5.20 27.03 14.06 -12.83 0 -43.18 -15.60 0 1.04 30.70 0 0.00 0.00 0 0.00 -15.00 0 -42.89 0.00 0 -53.39 0.00 0 -26.69 0.00 0 0.00 0.00 0 -54.35 0.00 0 -54.35 0.00 0 -54.35 0.00 0 0.00 15.00 0 -70.46 0.00 0 -70.46 0.00 0 -70.46 0.00 0 0.00 25.00 0 -52.53 0.00 0 -52.53 0.00 0 -52.53 
-182.22 89.66 100.76 76.32 -10.27 1.51 -14.79 1.22 -16.00 -0.00 32.36 -0.00 -40.15 -9.05 23.90 -9.25 -7.15 9.79 0.00 26.82 0.00 8.27 -14.06 -9.10 -5.18 -0.36 8.63 -1.31 -0.04 2.16 -2.15 0.08 3.56 0.99 2.93 -1.01 -6.87 52.16 -14.22 -19.62 37.11 -26.67 18.07 -9.84 -5.74 -7.36 -17.35 -21.15 -43.44 -25.23 58.57 -17.41 8.45 15.49 -45.3 -0 21.39 19.94 -0 -8.43 6.96 -0 0.00 0 -0 0.00 -15 -0 43.62 0 -0 43.91 0 -0 21.95 0 -0 0.00 0 -0 51.04 0 -0 51.04 0 -0 51.04 0 -0 0.00 15 -0 51.60 0 -0 51.60 0 -0 51.60 0 -0 0.00 25 -0 53.30 0 -0 53.30 0 -0 53.30 -27.68 -11.81 9.99 13.40 -21.51 50.27 -33.99 -9.29 1.65 -5.08 27.03 13.68 -12.83 0 -43.19 -15.61 0 1.02 30.65 0 0.00 0.00 0 0.00 -15.00 0 -42.93 0.00 0 -53.40 0.00 0 -26.70 0.00 0 0.00 0.00 0 -54.39 0.00 0 -54.39 0.00 0 -54.39 0.00 0 0.00 15.00 0 -70.47 0.00 0 -70.47 0.00 0 -70.47 0.00 0 0.00 25.00 0 -52.52 0.00 0 -52.52 0.00 0 -52.52 
-182.06 89.06 100.26 76.85 -10.14 1.22 -15.28 1.40 -16.14 -0.00 31.87 -0.00 -40.15 -8.50 24.18 -9.46 -7.14 9.71 -0.00 26.65 -0.00 8.14 -14.08 -9.34 -5.34 -0.32 8.34 -1.35 -0.03 2.08 -2.22 0.09 3.44 0.98 2.92 -0.99 -6.69 51.97 -13.98 -18.91 37.22 -26.10 18.31 -10.06 -5.62 -5.67 -17.64 -21.5 -42.97 -26.09 57.33 -17.35 8.36 15.44 -45.3 -0 21.34 19.93 -0 -8.48 6.98 -0 0.00 0 -0 0.00 -15 -0 43.54 0 -0 43.86 0 -0 21.93 0 -0 0.00 0 -0 50.92 0 -0 50.92 0 -0 50.92 0 -0 0.00 15 -0 51.55 0 -0 51.55 0 -0 51.55 0 -0 0.00 25 -0 53.60 0 -0 53.60 0 -0 53.60 -26.99 -11.86 8.59 11.65 -21.93 52.3 -33.11 -8.99 0.03 -6.09 26.88 14.70 -12.83 0 -43.21 -15.61 0 1.00 30.69 0 0.00 0.00 0 0.00 -15.00 0 -42.95 0.00 0 -53.46 0.00 0 -26.73 0.00 0 0.00 0.00 0 -54.41 0.00 0 -54.41 0.00 0 -54.41 0.00 0 0.00 15.00 0 -70.50 0.00 0 -70.50 0.00 0 -70.50 0.00 0 0.00 25.00 0 -52.02 0.00 0 -52.02 0.00 0 -52.02 
-181.89 88.41 99.67 77.38 -10.09 1.05 -15.83 1.58 -16.54 0.00 31.08 0.00 -40.01 -7.61 24.29 -10.45 -6.99 9.30 0.00 26.53 -0.00 8.77 -14.11 -9.29 -5.55 -0.20 7.99 -1.40 0.00 2.00 -2.30 0.14 3.30 0.97 2.92 -0.98 -6.53 51.71 -13.78 -18.22 37.31 -25.58 18.64 -10.26 -5.60 -5.65 -17.78 -21.2 -42.77 -25.78 57.13 -17.35 8.3 15.23 -45.31 -0 21.29 19.92 -0 -8.53 6.99 -0 0.00 0 -0 0.00 -15 -0 43.43 0 -0 43.82 0 -0 21.91 0 -0 0.00 0 -0 50.85 0 -0 50.85 0 -0 50.85 0 -0 0.00 15 -0 51.49 0 -0 51.49 0 -0 51.49 0 -0 0.00 25 -0 53.55 0 -0 53.55 0 -0 53.55 -26.85 -11.89 8.40 10.95 -22.08 53.18 -32.66 -8.41 -0.78 -5.98 26.76 14.49 -12.83 0 -43.23 -15.62 0 0.99 30.70 0 0.00 0.00 0 0.00 -15.00 0 -42.92 0.00 0 -53.47 0.00 0 -26.74 0.00 0 0.00 0.00 0 -54.39 0.00 0 -54.39 0.00 0 -54.39 0.00 0 0.00 15.00 0 -70.49 0.00 0 -70.49 0.00 0 -70.49 0.00 0 0.00 25.00 0 -51.41 0.00 0 -51.41 0.00 0 -51.41 
